PathFileType	4	(X/Y/Z)	/Users/niels/Desktop/University/Third Semester/Perception and Action/Exam/Gymnastics Motion Tracking/Code for Gym Tracking/Analyzed Data/Backflip/backflip_good_idn_4_Sports2D/backflip_good_idn_4_Sports2D_px_person00.trc
DataRate	CameraRate	NumFrames	NumMarkers	Units	OrigDataRate	OrigDataStartFrame	OrigNumFrames
60.11730205278593	60.11730205278593	11	22	m	60.11730205278593	154	206
Frame#	Time	Hip			RHip			RKnee			RAnkle			RBigToe			RSmallToe			RHeel			LHip			LKnee			LAnkle			LBigToe			LSmallToe			LHeel			Neck			Head			Nose			RShoulder			RElbow			RWrist			LShoulder			LElbow			LWrist		
		X1	Y1	Z1	X2	Y2	Z2	X3	Y3	Z3	X4	Y4	Z4	X5	Y5	Z5	X6	Y6	Z6	X7	Y7	Z7	X8	Y8	Z8	X9	Y9	Z9	X10	Y10	Z10	X11	Y11	Z11	X12	Y12	Z12	X13	Y13	Z13	X14	Y14	Z14	X15	Y15	Z15	X16	Y16	Z16	X17	Y17	Z17	X18	Y18	Z18	X19	Y19	Z19	X20	Y20	Z20	X21	Y21	Z21	X22	Y22	Z22
154	2.5616585365853655	1.1010332015595459	-0.3527990709336138	0.0	1.1027956452984937	-0.3519415365485739	0.0	1.065947700947834	-0.26884221779391176	0.0	1.1453229549450896	-0.2598566112314617	0.0	1.1585339209708077	-0.22362160007320694	0.0	1.1645644330089158	-0.23066824281077314	0.0	1.1568115425046972	-0.2654325610334869	0.0	1.0996358547688279	-0.3476108281182648	0.0	1.0678919846232056	-0.27333781889870085	0.0	1.1427946936525897	-0.2578412748313263	0.0	1.1592106156110655	-0.22433665077083464	0.0	1.1590522250082071	-0.22597321323190728	0.0	1.157293269187278	-0.2643399239228338	0.0	0.9933271881147708	-0.34254604139697253	0.0	0.95232103526183	-0.31887078551305326	0.0	0.9817181644206611	-0.31587835320014546	0.0	1.0006098867314412	-0.33733459548165684	0.0	1.0407263696345912	-0.2813017437632802	0.0	1.0347895749378344	-0.24291554143177438	0.0	0.9990619586291704	-0.3464991647533357	0.0	1.0357809700744958	-0.2910091936078982	0.0	1.033361219624331	-0.24820828100877088	0.0
155	2.5782926829268287	1.1027266545263408	-0.34293231174686034	0.0	1.104512439419362	-0.3416693762153268	0.0	1.0540080029409509	-0.2685652817984393	0.0	1.1300882636970468	-0.2476042576414727	0.0	1.1370432751150075	-0.20928904815665955	0.0	1.1439846298474687	-0.21566708965561018	0.0	1.1416064970008595	-0.250789054437065	0.0	1.1010293437497392	-0.33794114217218196	0.0	1.0566689760331827	-0.27286048410798136	0.0	1.1274496715834383	-0.24595079783167964	0.0	1.1386253579710235	-0.2099557705821026	0.0	1.1386941839372167	-0.21186756715730504	0.0	1.1428684191584637	-0.24927134710062443	0.0	0.9970519089605027	-0.3504594411041596	0.0	0.9533859736165086	-0.33617937051707664	0.0	0.9803629889065195	-0.32792652991122506	0.0	1.0045567742134434	-0.34372721220744773	0.0	1.04371592265204	-0.28612157375199954	0.0	1.0345738495861594	-0.25271562205535675	0.0	1.0034725485858724	-0.353804473551848	0.0	1.0385447335581957	-0.2969434323415402	0.0	1.0330737915751957	-0.2574034938872301	0.0
156	2.5949268292682923	1.103572705427067	-0.33285241227964135	0.0	1.105248929570618	-0.3312599629510141	0.0	1.0427479126876893	-0.27068784879519553	0.0	1.1135864487352738	-0.23865032173626394	0.0	1.1137880013406238	-0.19989085846855828	0.0	1.1215626928293805	-0.20540291714113565	0.0	1.1245651550334168	-0.23924765711109822	0.0	1.1017473383404557	-0.3281333960156987	0.0	1.0462106904700448	-0.27446979906231955	0.0	1.1107531786125113	-0.23733973857826854	0.0	1.1159915135698757	-0.20024796834315545	0.0	1.116315534109867	-0.20241544002299325	0.0	1.1264184552887162	-0.23736759702947016	0.0	1.0021045214225741	-0.35867276608788085	0.0	0.9573878139805814	-0.3540860266436308	0.0	0.9810002771706153	-0.34107269193395406	0.0	1.0093956797365757	-0.3503649936703087	0.0	1.0462731179017235	-0.2907058463519209	0.0	1.0336450742020717	-0.2627996793974523	0.0	1.0090731503378427	-0.361176668772087	0.0	1.040928943168535	-0.3024997560218035	0.0	1.0319966182533176	-0.26678197369637047	0.0
157	2.6115609756097555	1.1034263805367517	-0.3228585659368823	0.0	1.1048472477370834	-0.3210775427396871	0.0	1.032380607382276	-0.2750296845992603	0.0	1.0961469741059875	-0.2331082364925675	0.0	1.0893290699377114	-0.19561873518720407	0.0	1.097834668143901	-0.2000852960662157	0.0	1.1060208272706133	-0.23099215590191588	0.0	1.1016412375196756	-0.31847670531979133	0.0	1.0367295033782975	-0.2780243154151538	0.0	1.0930143295051677	-0.23208622587639574	0.0	1.0918348583419089	-0.1954358386265385	0.0	1.0924611316891752	-0.19778370015154406	0.0	1.1082642943517935	-0.22884418939666262	0.0	1.008523164761468	-0.36688938112297415	0.0	0.9644502202795501	-0.37193026537252244	0.0	0.983911476227055	-0.35489748177202773	0.0	1.0151333574751396	-0.35701117621962214	0.0	1.0482939354375276	-0.2950033596539515	0.0	1.0320633196227962	-0.2730887139646729	0.0	1.015841610559742	-0.3683376511983425	0.0	1.0429288373343948	-0.3075432335955927	0.0	1.0302565475156418	-0.2762560876652927	0.0
158	2.628195121951219	1.1021929180357861	-0.31330219684241567	0.0	1.1032244214502978	-0.3115228325032038	0.0	1.0231232865826536	-0.2813586622920212	0.0	1.0781030020662503	-0.23103669798575677	0.0	1.064280809724632	-0.1965013370141039	0.0	1.0733902923087946	-0.19976711862726018	0.0	1.0863390668657653	-0.22616736320463335	0.0	1.1005787872539612	-0.3093052258137444	0.0	1.0283904078030643	-0.2833461810821596	0.0	1.0745521918724654	-0.23020252720341242	0.0	1.0667677334129002	-0.19558436598182743	0.0	1.0677320614967132	-0.1979909283580147	0.0	1.0887690239292223	-0.22386562640123017	0.0	1.0162687203052565	-0.3748093099094984	0.0	0.9745370683510131	-0.38906321282796424	0.0	0.9892491518296759	-0.3689479279420837	0.0	1.0217500369010255	-0.3634150071427249	0.0	1.049702647141118	-0.29905050236812647	0.0	1.0299251517465438	-0.28351336185520154	0.0	1.0236992018021869	-0.3750104422191356	0.0	1.0445639704801017	-0.3120639020790189	0.0	1.0280296721309523	-0.2857722696461455	0.0
159	2.6448292682926824	1.0998372383635862	-0.30454489360680564	0.0	1.1003784403573003	-0.30297750160410214	0.0	1.0151495471897487	-0.28939622650392793	0.0	1.0597848499176783	-0.23243707684273146	0.0	1.0392755312331678	-0.20240562049233718	0.0	1.0488448707881348	-0.20434412310988162	0.0	1.0658988913498968	-0.2248778514292727	0.0	1.0984600978100412	-0.30097247053636006	0.0	1.02128527833642	-0.2902216204056984	0.0	1.055685073714834	-0.2316569061710178	0.0	1.0414512633976418	-0.20060728702170164	0.0	1.042758819917766	-0.2029157704436789	0.0	1.0683287928321206	-0.22253858061436463	0.0	1.0252179678491855	-0.382150807506354	0.0	0.987454665501507	-0.40491119398716546	0.0	0.997023601859128	-0.3827667930529255	0.0	1.0291947860877693	-0.36933649724946077	0.0	1.0504700481109825	-0.30296480113017754	0.0	1.0273438087739757	-0.29400536919176706	0.0	1.0325052988841024	-0.38094887574392167	0.0	1.045866252729163	-0.3161905262462436	0.0	1.0255102451673646	-0.2953254908731816	0.0
160	2.661463414634146	1.096393226566571	-0.2969136050455177	0.0	1.0963823407683109	-0.2957553944338006	0.0	1.0085342388587042	-0.2988347617980586	0.0	1.0415191593155957	-0.23725162153484253	0.0	1.014925416844248	-0.21305689308366313	0.0	1.0248090410406134	-0.21357774076819322	0.0	1.0450901200046618	-0.22718903363795756	0.0	1.0952538108513137	-0.29381897251924494	0.0	1.0154100577572491	-0.29841364614791066	0.0	1.0367356312703204	-0.2363883521377263	0.0	1.0165633070449918	-0.21029088236829308	0.0	1.018190943240812	-0.2123217812796861	0.0	1.0473730803333514	-0.22490209080675813	0.0	1.0351747326167156	-0.38866532672579385	0.0	1.0028594469626742	-0.41902337069219436	0.0	1.0070905894607776	-0.3959168966237573	0.0	1.0373836423186256	-0.3745760835718292	0.0	1.050626378286063	-0.30691653696836285	0.0	1.024428992704099	-0.3045004485607549	0.0	1.042067842121576	-0.3859620450683719	0.0	1.0468836862616457	-0.32013814828454124	0.0	1.0228785349991063	-0.30495353381819335	0.0
161	2.6780975609756092	1.0919627329647847	-0.2906676707494698	0.0	1.0913713463564079	-0.2900717481856807	0.0	1.003243831435764	-0.30934788954356035	0.0	1.0236258143673265	-0.24536479006479184	0.0	0.991804818656058	-0.2280655088665627	0.0	1.0018672276196712	-0.22712723475855762	0.0	1.0243171929419734	-0.2331217563290727	0.0	1.091019173009894	-0.2881299723590098	0.0	1.010668687403194	-0.3076707919940924	0.0	1.018045068513677	-0.24430269561451606	0.0	0.9927823628354829	-0.2243156351732397	0.0	0.994688069504312	-0.2258796287998086	0.0	1.026360214449984	-0.23092353216141795	0.0	1.0458955425394452	-0.3941529904754088	0.0	1.0202860786352812	-0.4310872545403973	0.0	1.0191590512166357	-0.40800380914345247	0.0	1.0461988675651142	-0.37900007331405855	0.0	1.0502624212164005	-0.31109477630224935	0.0	1.0212930353895902	-0.3149560646063315	0.0	1.052163895010785	-0.3899248992633755	0.0	1.0476865723739335	-0.3241320402715988	0.0	1.0202817964183701	-0.3147134368789527	0.0
162	2.694731707317073	1.0867061418555444	-0.28598768465843166	0.0	1.085533565843833	-0.28604113815033344	0.0	0.9991723969468173	-0.320598603501624	0.0	1.006412200617872	-0.2566107005059966	0.0	0.9704618490508967	-0.24695961656724513	0.0	0.9805664430235378	-0.24458638852893866	0.0	1.0039996275225958	-0.24264250720928804	0.0	1.085903403800001	-0.2840974031146374	0.0	1.0069173280327512	-0.3177382147667543	0.0	0.9999814393203343	-0.25526746982583987	0.0	0.970776878487498	-0.24228231413538048	0.0	0.9729027366171676	-0.2431916694700032	0.0	1.0057677248671888	-0.24051018215337994	0.0	1.0571180484200442	-0.398477907243616	0.0	1.0391908848259122	-0.4409119816728174	0.0	1.0328253122905973	-0.41868838239141404	0.0	1.0554924627353075	-0.3825479608035418	0.0	1.0495219467299162	-0.315679557316788	0.0	1.0180708871908817	-0.32537766276174845	0.0	1.0625622314126368	-0.39277829560964445	0.0	1.0483650975270888	-0.3283682260684087	0.0	1.0178344541039461	-0.3246663908600794	0.0
163	2.711365853658536	1.0808256016931672	-0.28298811938813245	0.0	1.079096573537421	-0.2837024961203787	0.0	0.9961784170856774	-0.3322616759225008	0.0	0.9901676802766811	-0.2707925425033185	0.0	0.9514326563132329	-0.26922663659274715	0.0	0.9614081331696559	-0.2655217705465387	0.0	0.9845704484352222	-0.2556696667567264	0.0	1.0801214222368056	-0.2818161492921617	0.0	1.0040060301657572	-0.32837775937414027	0.0	0.9829384789439102	-0.26912212716201533	0.0	0.9511932115154182	-0.2637436746223455	0.0	0.9534648254560687	-0.26382211538885436	0.0	0.9860829145891493	-0.2535348084875662	0.0	1.0685784201926325	-0.40157088598377316	0.0	1.0589945174112514	-0.4483985782801965	0.0	1.0476192778969424	-0.4276899136096683	0.0	1.065092755580168	-0.3852197265297232	0.0	1.0485877005633966	-0.32082640233120907	0.0	1.0149249734308663	-0.33582722276690774	0.0	1.0730366849951885	-0.39452169445113683	0.0	1.0490207802379898	-0.33300790282990955	0.0	1.0156304711916289	-0.3348738718556041	0.0
164	2.7279999999999998	1.0745417062108429	-0.28174111418953	0.0	1.0723043250182687	-0.28305246450398586	0.0	0.9941018118417422	-0.344056534276675	0.0	0.9751557526643986	-0.28770198063298386	0.0	0.9352295132313996	-0.29434776808383806	0.0	0.9448282776865449	-0.2894963800913404	0.0	0.966473679737158	-0.2720874617869076	0.0	1.0739240968700599	-0.28131181928864196	0.0	1.001793147332268	-0.33939095693165355	0.0	0.9673266181154969	-0.2856911927647762	0.0	0.934633457840085	-0.28822564295463	0.0	0.9369636795312387	-0.28731981739422974	0.0	0.9677927726951563	-0.26985387493808827	0.0	1.0800161980822682	-0.40342255599978927	0.0	1.0791160726951976	-0.4535179338926538	0.0	1.0630466087730293	-0.43479395346211086	0.0	1.0748094315511434	-0.387057325786539	0.0	1.0476635898707947	-0.3266602558745651	0.0	1.0120329085216448	-0.3464077230126344	0.0	1.0833671284912252	-0.3952050799373992	0.0	1.04975704425069	-0.3381782138830455	0.0	1.013757447472461	-0.3453950201099895	0.0
